<svg xmlns="http://www.w3.org/2000/svg" fill="none" viewBox="0 0 40 40">
  <script type="text/javascript"/>
  <script data-extension-id="dlcobpjiigpikoobohmabehhmhfoodbb"/>
  <script/>
  <circle cx="20" cy="20" r="20" fill="#FAFAFA"/>
  <path fill="#000" d="m26.008 13.175 3.079-1.776V6l-11.17 6.62-6.903-4.075v.491l6.892 4.113v3.07l-6.891-4.074v3.936H11v.49l6.917 4.121.008 3.703-6.679-3.953-.224-.145v5.052l6.858 4.092V34l11.207-6.545V15.022l-3.079-1.847Zm-1.473 11.511-3.006-1.803 3.03-1.721-.024 3.524ZM14.261 14.56l-2.886 1.738V12.85l2.886 1.71Zm-2.54 1.94 2.888-1.739 3.307 1.972.007 3.433-6.202-3.666Zm9.36 6.639 3.285 1.969-6.469 3.817-6.43-3.79 3.407-2.028 3.06 1.827 3.147-1.795Zm-9.706-2.127 3.138 1.873-3.138 1.884V21.01Zm10.758-1.895v-3.708l3.44-1.982 3.115 1.857-6.555 3.833Z"/>
</svg>
