<svg xmlns="http://www.w3.org/2000/svg" fill="none" viewBox="0 0 40 40">
  <script type="text/javascript"/>
  <script data-extension-id="dlcobpjiigpikoobohmabehhmhfoodbb"/>
  <script/>
  <circle cx="20" cy="20" r="20" fill="#304849"/>
  <path fill="#FFCF56" d="M19.999 32c-.972 0-1.522-1.243-2.054-2.445-.334-.755-.75-1.695-1.135-1.854-.39-.162-1.37.209-2.157.507-1.273.483-2.476.939-3.138.276-.659-.658-.206-1.841.273-3.093.304-.796.683-1.787.51-2.202-.16-.384-1.098-.8-1.853-1.134C9.243 21.521 8 20.97 8 19.998s1.242-1.522 2.444-2.054c.754-.334 1.694-.75 1.854-1.135.162-.391-.209-1.37-.507-2.157-.483-1.274-.939-2.477-.277-3.14.659-.658 1.841-.205 3.094.274.795.304 1.786.683 2.201.51.387-.16.804-1.1 1.138-1.855C18.48 9.242 19.03 8 20 8c.971 0 1.522 1.243 2.054 2.444.334.755.75 1.695 1.135 1.855.39.162 1.37-.209 2.157-.507 1.273-.483 2.476-.94 3.138-.277.658.659.206 1.842-.273 3.094-.304.796-.683 1.787-.51 2.202.16.384 1.098.8 1.853 1.134 1.202.533 2.445 1.084 2.445 2.056s-1.243 1.521-2.445 2.053c-.755.334-1.695.75-1.855 1.134-.172.415.206 1.406.51 2.201.479 1.253.932 2.437.273 3.095-.658.658-1.84.206-3.092-.272-.797-.305-1.788-.684-2.204-.511-.384.16-.8 1.098-1.133 1.853C21.52 30.757 20.969 32 19.997 32H20Zm-3.432-5.11c.196 0 .377.029.54.096.67.278 1.096 1.24 1.546 2.256.391.884.878 1.984 1.346 1.984.468 0 .955-1.1 1.347-1.985.45-1.017.875-1.977 1.544-2.255.7-.291 1.71.095 2.778.503.83.317 1.965.75 2.267.448.304-.303-.13-1.44-.448-2.271-.408-1.066-.793-2.074-.503-2.774.279-.67 1.24-1.096 2.257-1.546.884-.39 1.984-.877 1.984-1.345 0-.467-1.1-.955-1.985-1.347-1.016-.45-1.976-.876-2.254-1.545-.291-.7.094-1.709.502-2.776.317-.83.752-1.967.449-2.27-.308-.308-1.47.131-2.317.453-1.056.4-2.054.778-2.728.498-.67-.278-1.096-1.24-1.546-2.256-.392-.884-.878-1.984-1.346-1.984-.468 0-.954 1.099-1.345 1.981-.451 1.018-.878 1.98-1.55 2.257-.699.291-1.707-.094-2.774-.503-.83-.317-1.966-.752-2.27-.448-.307.308.132 1.469.454 2.317.4 1.056.778 2.053.498 2.728-.278.67-1.239 1.096-2.256 1.547-.883.391-1.983.878-1.983 1.346 0 .467 1.1.955 1.984 1.347 1.017.45 1.977.876 2.254 1.545.291.7-.094 1.709-.502 2.776-.317.83-.752 1.967-.449 2.27.309.308 1.47-.132 2.317-.453.801-.304 1.57-.595 2.188-.595Zm2.172-11.972c-.176.182-.39.37-.646.476-.256.106-.54.127-.794.124a8.547 8.547 0 0 1-.593-.034l-.17-.013a3.181 3.181 0 0 0-.626-.002c-.169.022-.262.069-.317.124-.055.055-.103.15-.126.323a3.231 3.231 0 0 0 0 .632l.013.186c.015.187.031.389.033.576.004.251-.015.533-.12.783-.104.252-.29.463-.47.636-.132.125-.283.253-.423.37l-.149.127a3.04 3.04 0 0 0-.444.442c-.103.137-.139.243-.139.332 0 .089.036.193.137.326.105.138.255.277.441.436.044.037.09.077.138.116.143.12.299.251.434.382.183.176.37.39.476.647.106.256.127.54.125.794a8.547 8.547 0 0 1-.034.593l-.014.17a3.18 3.18 0 0 0-.002.625c.022.17.07.263.124.318.056.055.15.102.323.126.174.024.384.017.632 0l.186-.014c.187-.015.39-.03.576-.033.252-.003.533.016.784.12s.462.291.635.471c.126.131.253.282.371.423l.126.149c.16.186.303.338.443.443.137.104.242.14.331.14.09 0 .193-.036.327-.137.137-.105.277-.255.436-.441l.116-.138c.12-.143.25-.299.382-.434.176-.183.39-.37.646-.476.256-.106.54-.127.794-.125.194.002.402.019.593.034l.17.014c.247.018.454.025.626.002.169-.022.262-.07.317-.124.056-.055.102-.148.125-.318a3.184 3.184 0 0 0-.003-.625 13.409 13.409 0 0 0-.013-.172 8.543 8.543 0 0 1-.034-.592c-.003-.255.018-.538.124-.794.105-.251.292-.462.472-.635a8.81 8.81 0 0 1 .422-.37l.149-.127a3.04 3.04 0 0 0 .444-.442c.103-.137.14-.242.14-.332 0-.09-.036-.193-.138-.326a3.009 3.009 0 0 0-.44-.436c-.044-.037-.09-.077-.138-.116-.144-.12-.3-.251-.435-.382-.182-.176-.37-.39-.476-.647-.106-.256-.127-.54-.124-.794.002-.194.018-.402.034-.593l.013-.17a3.18 3.18 0 0 0 .003-.625c-.023-.17-.07-.263-.125-.318-.055-.055-.15-.102-.322-.126a3.232 3.232 0 0 0-.632 0l-.186.014c-.188.015-.39.03-.576.033-.252.003-.534-.016-.784-.12-.252-.104-.462-.291-.635-.471-.126-.131-.253-.283-.371-.423l-.127-.149a3.036 3.036 0 0 0-.442-.443c-.137-.104-.242-.14-.331-.14-.09 0-.193.036-.327.138a3.01 3.01 0 0 0-.436.44l-.116.138c-.12.143-.251.3-.382.435Zm.466-1.63c.213-.161.478-.295.794-.295.317 0 .584.135.798.296.211.16.4.366.563.557l.149.175c.111.132.213.253.32.364.152.158.273.251.374.293.102.043.256.064.477.06.16-.001.323-.014.502-.028l.216-.016c.251-.018.53-.03.79.005.261.036.545.125.766.346.22.222.31.503.344.763.035.258.02.535.003.784l-.016.198a7.62 7.62 0 0 0-.03.516c-.002.22.02.38.065.49.046.11.142.235.299.387.114.11.239.215.376.33l.161.135c.19.162.396.348.555.558.162.212.295.477.295.794 0 .316-.134.584-.296.798-.16.212-.366.4-.557.564l-.175.148a7.405 7.405 0 0 0-.365.32c-.157.151-.25.272-.292.373-.046.111-.068.27-.066.49.002.164.015.332.03.516l.016.198c.018.25.032.526-.002.785-.035.26-.124.541-.345.763-.22.22-.502.31-.762.344-.258.035-.535.02-.785.002l-.197-.015c-.184-.015-.353-.028-.517-.03-.22-.003-.379.02-.49.065-.11.046-.235.142-.386.299-.11.114-.215.239-.33.375-.043.053-.088.107-.136.162a3.73 3.73 0 0 1-.557.555c-.213.161-.478.294-.794.294-.317 0-.584-.134-.798-.295-.211-.16-.4-.366-.563-.557l-.148-.175a7.382 7.382 0 0 0-.321-.364c-.151-.158-.273-.251-.374-.293-.102-.043-.256-.064-.477-.06-.16.001-.323.014-.502.028l-.215.016c-.252.017-.532.03-.79-.005-.262-.036-.545-.125-.767-.346-.22-.221-.31-.503-.344-.763a3.909 3.909 0 0 1-.002-.784l.015-.198c.015-.184.028-.353.03-.516.003-.22-.02-.38-.065-.49-.046-.11-.142-.235-.299-.387a7.192 7.192 0 0 0-.375-.33 23.015 23.015 0 0 1-.162-.135 3.725 3.725 0 0 1-.555-.558c-.161-.212-.295-.477-.295-.794 0-.316.135-.583.296-.797.16-.212.366-.4.557-.564l.175-.148c.132-.112.253-.213.364-.32.158-.152.251-.273.293-.374.043-.103.064-.257.06-.477a7.675 7.675 0 0 0-.028-.503 41.58 41.58 0 0 1-.016-.215 3.914 3.914 0 0 1 .005-.79c.036-.262.125-.545.346-.766.222-.221.503-.31.763-.345.258-.034.535-.02.784-.002l.198.015c.184.015.353.029.516.03.22.003.38-.019.49-.065.11-.045.235-.141.387-.298.11-.115.215-.24.33-.376l.135-.162a3.72 3.72 0 0 1 .558-.555ZM20 17.213c-.38 0-.725.07-1.066.211a2.801 2.801 0 0 0-1.509 1.509A2.775 2.775 0 0 0 17.213 20c0 .379.07.726.211 1.066a2.801 2.801 0 0 0 1.509 1.51c.329.135.688.21 1.067.21s.726-.07 1.066-.21a2.801 2.801 0 0 0 1.51-1.51c.135-.329.21-.688.21-1.067s-.07-.725-.21-1.066a2.801 2.801 0 0 0-1.51-1.509A2.775 2.775 0 0 0 20 17.213Zm-1.363-.504A3.49 3.49 0 0 1 20 16.44a3.55 3.55 0 0 1 2.518 1.043c.328.328.592.72.773 1.155.18.435.27.881.27 1.363a3.55 3.55 0 0 1-1.043 2.518 3.57 3.57 0 0 1-1.154.773c-.435.18-.882.27-1.364.27a3.55 3.55 0 0 1-2.518-1.043 3.569 3.569 0 0 1-.772-1.155 3.49 3.49 0 0 1-.27-1.363 3.549 3.549 0 0 1 1.042-2.518 3.57 3.57 0 0 1 1.155-.773Z"/>
</svg>
