<svg xmlns="http://www.w3.org/2000/svg" fill="none" viewBox="0 0 40 40">
  <script type="text/javascript"/>
  <script data-extension-id="dlcobpjiigpikoobohmabehhmhfoodbb"/>
  <script/>
  <circle cx="20" cy="20" r="20" fill="#F3F3F3"/>
  <path fill="#7E4798" d="m21.533 14.084-.382 1.53c.542-1.084 1.418-1.897 2.422-2.614-.733.845-1.402 1.69-1.8 2.55.684-.972 1.609-1.498 2.645-1.865a17.947 17.947 0 0 0-3.315 3.889l-.67-.287c.112-1.068.51-2.151 1.1-3.203Z"/>
  <path fill="#7E4798" d="m21.023 17.51.463.239c-.048.303.015.972.318 1.131 1.339.829 2.582 1.721 3.076 2.63 1.753 3.171-1.227 6.12-3.825 5.832 1.403-1.035 1.817-3.17 1.291-5.514-.207-.908-.542-1.737-1.131-2.677-.255-.43-.16-1.004-.192-1.641ZM20.514 19.025c-.096.494-.207 1.387-.638 1.722-.175.127-.366.255-.557.382-.781.526-1.546 1.02-1.897 2.279-.08.27-.016.558.048.828.191.781.733 1.61 1.163 2.104 0 .016.08.08.08.096.35.414.462.542 1.8.844l-.031.144c-.813-.207-1.466-.415-1.896-.893 0-.016-.08-.08-.08-.08-.446-.51-1.004-1.37-1.195-2.183-.08-.318-.144-.573-.048-.908.366-1.307 1.163-1.833 1.96-2.375.175-.111.398-.223.574-.366.366-.239.541-.988.717-1.594Z"/>
  <path fill="#7E4798" d="M20.863 21.096c.016.558-.048.844.095 1.243.08.239.383.558.463.876.111.415.239.877.239 1.164 0 .318-.016.924-.16 1.561-.111.526-.35.988-.765 1.243-.43-.08-.924-.239-1.211-.494-.574-.494-1.068-1.322-1.131-2.04-.048-.59.494-1.466 1.258-1.896.638-.382.797-.797.94-1.498-.19.606-.382 1.1-1.003 1.434-.909.478-1.37 1.26-1.323 2.024.064.972.446 1.626 1.211 2.152.319.223.925.462 1.307.526v-.048c.287-.048.653-.526.845-1.148.159-.573.223-1.29.207-1.753-.016-.27-.128-.844-.35-1.37-.112-.287-.304-.574-.415-.781-.144-.24-.144-.685-.207-1.195Z"/>
  <path fill="#7E4798" d="M20.766 23.28c.016.382.16.86.223 1.354.048.366.032.733.016 1.052-.016.366-.128 1.035-.303 1.37-.16-.08-.223-.16-.335-.287a2.465 2.465 0 0 1-.303-.573c-.063-.16-.143-.351-.175-.558a1.811 1.811 0 0 1 .335-1.339c.287-.414.35-.446.446-.908-.127.414-.223.462-.526.813-.334.382-.382.956-.382 1.418 0 .191.08.414.16.605.079.208.158.43.27.59.175.255.398.415.51.43v-.015c.207-.24.335-.463.382-.702.048-.287.064-.558.096-.892a3.404 3.404 0 0 0-.064-1.036c-.095-.478-.27-.972-.35-1.323Z"/>
  <path fill="#7E4798" d="M20.828 18.578c.016.558.048 1.594.208 2.008.047.144.446.75.717 1.498.191.51.239.988.27 1.132.128.605-.031 1.641-.238 2.613-.112.526-.479 1.18-.893 1.434l-.08.144c.24-.016.813-.574 1.02-1.291.351-1.195.479-1.753.32-3.092a3.795 3.795 0 0 0-.288-1.036c-.303-.717-.733-1.402-.78-1.545-.112-.223-.24-1.212-.256-1.865Z"/>
  <path fill="#7E4798" d="M21.021 17.559c-.031.573-.031 1.02.064 1.45.112.462.717 1.131.972 1.896.479 1.466.351 3.379.016 4.86-.127.527-.733 1.292-1.354 1.53l.446.112c.239-.016.877-.605 1.131-1.275.399-1.068.479-2.326.32-3.665-.017-.127-.224-1.275-.431-1.753-.287-.717-.75-1.227-.909-1.673-.127-.335-.175-1.227-.095-1.403l-.16-.08ZM8.606 14.402h8.621c.319 0 .606.271.606.606v2.55a.616.616 0 0 1-.606.605h-1.769c-.398 0-.574.223-.574.478v8.335a.486.486 0 0 1-.494.494h-2.932a.473.473 0 0 1-.478-.494v-8.414c0-.255-.239-.415-.414-.415h-1.96A.605.605 0 0 1 8 17.542v-2.55c0-.319.27-.59.606-.59ZM30.727 17.781h.764a.5.5 0 0 1 .51.494V21c0 .351.016.494-.414.494-.845 0-1.227.447-1.227.94v4.606c0 .207-.207.399-.446.399h-2.741c-.24 0-.446-.176-.446-.399v-5.243c0-.095 0-.223.015-.303.144-1.944 1.674-3.49 3.602-3.697.048 0 .271-.016.383-.016Z"/>
  <path fill="#7E4798" d="M24.21 20.378c-.462-.414-1.036-.764-1.641-1.1-.271-.142-1.1-.796-.813-1.72l-2.087-.86-.144.11c.701 1.26.335 1.93-.016 2.152-.701.478-1.721 1.084-2.215 1.61-.972 1.004-1.259 1.96-1.163 3.203.095 1.61 1.259 2.948 2.836 3.474.686.223 1.323.255 2.024.255 1.132 0 2.31-.303 3.156-1.004a3.967 3.967 0 0 0 1.434-3.044 4.157 4.157 0 0 0-1.37-3.076Zm-.303 5.881c-.78.637-2.183 1.084-2.932 1.052-.828-.048-1.641-.175-2.358-.526-1.26-.606-2.088-1.928-2.152-2.996-.111-2.183.94-2.805 1.913-3.602.541-.446 1.306-.669 1.737-1.466.08-.175.127-.558.032-.956-.048-.143-.24-.622-.32-.733l1.563.685c-.192.717.398 1.466.876 1.737.478.271 1.227.781 1.69 1.195.812.718 1.226 1.738 1.226 2.805 0 1.068-.446 2.12-1.274 2.805Z"/>
</svg>
